<svg id="visual" viewBox="0 0 900 600" width="900" height="600" xmlns="http://www.w3.org/2000/svg" xmlns:xlink="http://www.w3.org/1999/xlink" version="1.1"><rect x="0" y="0" width="900" height="600" fill="#001220"></rect><path d="M0 382L21.5 377.5C43 373 86 364 128.8 371.5C171.7 379 214.3 403 257.2 406.8C300 410.7 343 394.3 385.8 390.7C428.7 387 471.3 396 514.2 401C557 406 600 407 642.8 399.7C685.7 392.3 728.3 376.7 771.2 368.2C814 359.7 857 358.3 878.5 357.7L900 357L900 601L878.5 601C857 601 814 601 771.2 601C728.3 601 685.7 601 642.8 601C600 601 557 601 514.2 601C471.3 601 428.7 601 385.8 601C343 601 300 601 257.2 601C214.3 601 171.7 601 128.8 601C86 601 43 601 21.5 601L0 601Z" fill="#2e1340"></path><path d="M0 447L21.5 451.5C43 456 86 465 128.8 467.3C171.7 469.7 214.3 465.3 257.2 458.8C300 452.3 343 443.7 385.8 440.7C428.7 437.7 471.3 440.3 514.2 436.8C557 433.3 600 423.7 642.8 427.8C685.7 432 728.3 450 771.2 453.7C814 457.3 857 446.7 878.5 441.3L900 436L900 601L878.5 601C857 601 814 601 771.2 601C728.3 601 685.7 601 642.8 601C600 601 557 601 514.2 601C471.3 601 428.7 601 385.8 601C343 601 300 601 257.2 601C214.3 601 171.7 601 128.8 601C86 601 43 601 21.5 601L0 601Z" fill="#411644"></path><path d="M0 472L21.5 467.5C43 463 86 454 128.8 457.8C171.7 461.7 214.3 478.3 257.2 477.5C300 476.7 343 458.3 385.8 460.3C428.7 462.3 471.3 484.7 514.2 495.3C557 506 600 505 642.8 500.3C685.7 495.7 728.3 487.3 771.2 488.5C814 489.7 857 500.3 878.5 505.7L900 511L900 601L878.5 601C857 601 814 601 771.2 601C728.3 601 685.7 601 642.8 601C600 601 557 601 514.2 601C471.3 601 428.7 601 385.8 601C343 601 300 601 257.2 601C214.3 601 171.7 601 128.8 601C86 601 43 601 21.5 601L0 601Z" fill="#541946"></path><path d="M0 542L21.5 533C43 524 86 506 128.8 498C171.7 490 214.3 492 257.2 498.2C300 504.3 343 514.7 385.8 518.8C428.7 523 471.3 521 514.2 522.7C557 524.3 600 529.7 642.8 524.8C685.7 520 728.3 505 771.2 503.7C814 502.3 857 514.7 878.5 520.8L900 527L900 601L878.5 601C857 601 814 601 771.2 601C728.3 601 685.7 601 642.8 601C600 601 557 601 514.2 601C471.3 601 428.7 601 385.8 601C343 601 300 601 257.2 601C214.3 601 171.7 601 128.8 601C86 601 43 601 21.5 601L0 601Z" fill="#661d46"></path><path d="M0 561L21.5 557.7C43 554.3 86 547.7 128.8 545.3C171.7 543 214.3 545 257.2 545C300 545 343 543 385.8 541.3C428.7 539.7 471.3 538.3 514.2 537.2C557 536 600 535 642.8 533.3C685.7 531.7 728.3 529.3 771.2 528.8C814 528.3 857 529.7 878.5 530.3L900 531L900 601L878.5 601C857 601 814 601 771.2 601C728.3 601 685.7 601 642.8 601C600 601 557 601 514.2 601C471.3 601 428.7 601 385.8 601C343 601 300 601 257.2 601C214.3 601 171.7 601 128.8 601C86 601 43 601 21.5 601L0 601Z" fill="#762345"></path></svg>